{
	"asset":{
		"version":"2.0",
		"generator":"Maxon Cinema 4D 2023.2.2 (#200000219)"
	},
	"scenes":[{
		"nodes":[0,
		1,
		2]
	}],
	"nodes":[{
		"name":"Cylinder",
		"mesh":0,
		"translation":[-0.026724277064204217,
		0.0,
		0.0],
		"rotation":[0.0,
		0.0,
		0.0,
		-1.0],
		"scale":[1.0,
		1.0,
		1.0]
	},
	{
		"name":"Sticker",
		"mesh":1,
		"translation":[-0.026724277064204217,
		0.0,
		0.0],
		"rotation":[0.0,
		0.0,
		0.0,
		-1.0],
		"scale":[1.0,
		1.0,
		1.0]
	},
	{
		"name":"Subdivision Surface",
		"translation":[0.0,
		27.332155227661134,
		0.0],
		"rotation":[0.0,
		0.0,
		0.0,
		-1.0],
		"scale":[1.0,
		1.0,
		1.0],
		"children":[3]
	},
	{
		"name":"Connect",
		"translation":[0.0,
		-13.660632133483887,
		0.0],
		"rotation":[0.0,
		0.0,
		0.0,
		-1.0],
		"scale":[1.0,
		1.0,
		1.0],
		"children":[4]
	},
	{
		"name":"Cloner",
		"mesh":2
	}],
	"meshes":[{
		"name":"Cylinder",
		"primitives":[{
			"attributes":{
				"POSITION":1,
				"NORMAL":2,
				"TEXCOORD_0":3
			},
			"indices":0,
			"material":0
		}]
	},
	{
		"name":"Sticker",
		"primitives":[{
			"attributes":{
				"POSITION":5,
				"NORMAL":6,
				"TEXCOORD_0":7
			},
			"indices":4,
			"material":1
		}]
	},
	{
		"name":"Cloner",
		"primitives":[{
			"attributes":{
				"POSITION":9,
				"NORMAL":10,
				"TEXCOORD_0":11
			},
			"indices":8,
			"material":2
		}]
	}],
	"accessors":[{
		"bufferView":0,
		"type":"SCALAR",
		"componentType":5123,
		"count":9300,
		"byteOffset":0,
		"min":[0],
		"max":[1670]
	},
	{
		"bufferView":1,
		"type":"VEC3",
		"componentType":5126,
		"count":1671,
		"byteOffset":0,
		"min":[-3.9697775840759279,
		-14.911538124084473,
		-3.993264675140381],
		"max":[4.000992298126221,
		13.272401809692383,
		3.993264675140381]
	},
	{
		"bufferView":1,
		"type":"VEC3",
		"componentType":5126,
		"count":1671,
		"byteOffset":12,
		"min":[-0.9964935779571533,
		-1.0,
		-0.9980270266532898],
		"max":[0.9999998807907105,
		1.0,
		0.999768853187561]
	},
	{
		"bufferView":1,
		"type":"VEC2",
		"componentType":5126,
		"count":1671,
		"byteOffset":24,
		"min":[0.0,
		0.0],
		"max":[0.0,
		0.0]
	},
	{
		"bufferView":2,
		"type":"SCALAR",
		"componentType":5123,
		"count":1200,
		"byteOffset":0,
		"min":[0],
		"max":[233]
	},
	{
		"bufferView":3,
		"type":"VEC3",
		"componentType":5126,
		"count":234,
		"byteOffset":0,
		"min":[-3.7978196144104006,
		-11.102180480957032,
		-3.9679462909698488],
		"max":[3.954767942428589,
		-3.395045280456543,
		3.799969434738159]
	},
	{
		"bufferView":3,
		"type":"VEC3",
		"componentType":5126,
		"count":234,
		"byteOffset":12,
		"min":[-0.9965100884437561,
		-0.12850244343280793,
		-0.9997851848602295],
		"max":[0.9999995231628418,
		0.005687715020030737,
		0.9987112879753113]
	},
	{
		"bufferView":3,
		"type":"VEC2",
		"componentType":5126,
		"count":234,
		"byteOffset":24,
		"min":[-0.9490204453468323,
		-1.0024285316467286],
		"max":[0.04902047663927078,
		-0.4509795010089874]
	},
	{
		"bufferView":4,
		"type":"SCALAR",
		"componentType":5123,
		"count":16200,
		"byteOffset":0,
		"min":[0],
		"max":[3950]
	},
	{
		"bufferView":5,
		"type":"VEC3",
		"componentType":5126,
		"count":3951,
		"byteOffset":0,
		"min":[-2.15199613571167,
		-1.1025854349136353,
		-2.16481876373291],
		"max":[2.169097661972046,
		-0.042214058339595798,
		2.164815902709961]
	},
	{
		"bufferView":5,
		"type":"VEC3",
		"componentType":5126,
		"count":3951,
		"byteOffset":12,
		"min":[-0.999983549118042,
		-0.5276442766189575,
		-0.9999749660491943],
		"max":[0.9996242523193359,
		1.0,
		0.999971866607666]
	},
	{
		"bufferView":5,
		"type":"VEC2",
		"componentType":5126,
		"count":3951,
		"byteOffset":24,
		"min":[0.5818295478820801,
		0.598914623260498],
		"max":[0.8637344837188721,
		0.9213815927505493]
	}],
	"bufferViews":[{
		"byteLength":18600,
		"buffer":0,
		"byteOffset":0,
		"target":34963
	},
	{
		"byteLength":53472,
		"buffer":0,
		"byteOffset":18600,
		"target":34962,
		"byteStride":32
	},
	{
		"byteLength":2400,
		"buffer":1,
		"byteOffset":0,
		"target":34963
	},
	{
		"byteLength":7488,
		"buffer":1,
		"byteOffset":2400,
		"target":34962,
		"byteStride":32
	},
	{
		"byteLength":32400,
		"buffer":2,
		"byteOffset":0,
		"target":34963
	},
	{
		"byteLength":126432,
		"buffer":2,
		"byteOffset":32400,
		"target":34962,
		"byteStride":32
	}],
	"buffers":[{
		"uri":"data:application/octet-stream;base64,",
		"byteLength":72072
	},
	{
		"uri":"data:application/octet-stream;base64,",
		"byteLength":9888
	},
	{
		"uri":"data:application/octet-stream;base64,",
		"byteLength":158832
	}],
	"images":[{
		"uri":"data:image/png;base64,"
	}],
	"samplers":[{
		"magFilter":9729,
		"minFilter":9729,
		"wrapS":10497,
		"wrapT":10497
	}],
	"textures":[{
		"sampler":0,
		"source":0
	}],
	"materials":[{
		"alphaMode":"BLEND",
		"pbrMetallicRoughness":{
			"baseColorFactor":[1.0,
			1.0,
			1.0,
			0.11110784774436089],
			"metallicFactor":0.77,
			"roughnessFactor":0.09
		},
		"emissiveFactor":[0.0,
		0.0,
		0.0],
		"name":"Mat.1",
		"doubleSided":true
	},
	{
		"alphaMode":"OPAQUE",
		"pbrMetallicRoughness":{
			"baseColorTexture":{
				"index":0
			},
			"baseColorFactor":[1.0,
			1.0,
			1.0,
			1.0],
			"metallicFactor":0.0,
			"roughnessFactor":0.5
		},
		"emissiveFactor":[0.0,
		0.0,
		0.0],
		"name":"Sticker",
		"doubleSided":true
	},
	{
		"alphaMode":"OPAQUE",
		"pbrMetallicRoughness":{
			"baseColorFactor":[0.5848243656015039,
			0.2588945808196381,
			0.0,
			1.0],
			"metallicFactor":0.0,
			"roughnessFactor":0.1615
		},
		"emissiveFactor":[0.0,
		0.0,
		0.0],
		"name":"Mat",
		"doubleSided":true
	}]
}