{
	"asset":{
		"version":"2.0",
		"generator":"Maxon Cinema 4D TRIAL 2024.2.0 (#200000219)"
	},
	"scenes":[{
		"nodes":[0,
		1,
		2,
		3]
	}],
	"nodes":[{
		"name":"Subdivision Surface.1",
		"translation":[0.03323798626661301,
		0.04520654305815697,
		0.0],
		"rotation":[0.0,
		0.0,
		0.0,
		-1.0],
		"scale":[1.0,
		1.0,
		1.0],
		"children":[4]
	},
	{
		"name":"Subdivision Surface",
		"translation":[0.03323798626661301,
		0.04520654305815697,
		0.0],
		"rotation":[0.0,
		0.0,
		0.0,
		-1.0],
		"scale":[1.0,
		1.0,
		1.0],
		"children":[5]
	},
	{
		"name":"Undercap",
		"mesh":0,
		"translation":[0.008850946091115475,
		8.068981170654297,
		0.0],
		"rotation":[0.0,
		0.0,
		0.0,
		-1.0],
		"scale":[1.0,
		1.0,
		1.0]
	},
	{
		"name":"Cap",
		"mesh":1,
		"translation":[0.014417476952075959,
		8.432085037231446,
		0.0],
		"rotation":[0.0,
		0.0,
		0.0,
		-1.0],
		"scale":[1.0,
		1.0,
		1.0]
	},
	{
		"name":"Sticker",
		"mesh":2
	},
	{
		"name":"Body",
		"mesh":3
	}],
	"meshes":[{
		"name":"Undercap",
		"primitives":[{
			"attributes":{
				"POSITION":1,
				"NORMAL":2,
				"TEXCOORD_0":3
			},
			"indices":0,
			"material":0
		}]
	},
	{
		"name":"Cap",
		"primitives":[{
			"attributes":{
				"POSITION":5,
				"NORMAL":6,
				"TEXCOORD_0":7
			},
			"indices":4,
			"material":1
		}]
	},
	{
		"name":"Sticker",
		"primitives":[{
			"attributes":{
				"POSITION":9,
				"NORMAL":10,
				"TEXCOORD_0":11
			},
			"indices":8,
			"material":2
		}]
	},
	{
		"name":"Body",
		"primitives":[{
			"attributes":{
				"POSITION":13,
				"NORMAL":14,
				"TEXCOORD_0":15
			},
			"indices":12,
			"material":0
		}]
	}],
	"accessors":[{
		"bufferView":0,
		"type":"SCALAR",
		"componentType":5123,
		"count":4500,
		"byteOffset":0,
		"min":[0],
		"max":[883]
	},
	{
		"bufferView":1,
		"type":"VEC3",
		"componentType":5126,
		"count":884,
		"byteOffset":0,
		"min":[-1.294810175895691,
		-0.4575274884700775,
		-1.2969262599945069],
		"max":[1.2939239740371705,
		0.9929896593093872,
		1.2969262599945069]
	},
	{
		"bufferView":1,
		"type":"VEC3",
		"componentType":5126,
		"count":884,
		"byteOffset":12,
		"min":[-0.9965103268623352,
		-1.0,
		-0.9980272650718689],
		"max":[1.0,
		1.0,
		0.9997854232788086]
	},
	{
		"bufferView":1,
		"type":"VEC2",
		"componentType":5126,
		"count":884,
		"byteOffset":24,
		"min":[0.0,
		0.0],
		"max":[1.0,
		1.0]
	},
	{
		"bufferView":2,
		"type":"SCALAR",
		"componentType":5123,
		"count":3075,
		"byteOffset":0,
		"min":[0],
		"max":[670]
	},
	{
		"bufferView":3,
		"type":"VEC3",
		"componentType":5126,
		"count":671,
		"byteOffset":0,
		"min":[-1.2279784679412842,
		-0.45160600543022158,
		-1.2352960109710694],
		"max":[1.2377384901046754,
		0.8640590906143189,
		1.2352960109710694]
	},
	{
		"bufferView":3,
		"type":"VEC3",
		"componentType":5126,
		"count":671,
		"byteOffset":12,
		"min":[-0.9965103268623352,
		-1.0,
		-0.9997854232788086],
		"max":[1.0,
		1.0,
		0.9980272650718689]
	},
	{
		"bufferView":3,
		"type":"VEC2",
		"componentType":5126,
		"count":671,
		"byteOffset":24,
		"min":[0.0,
		0.0],
		"max":[1.0,
		0.9990133047103882]
	},
	{
		"bufferView":4,
		"type":"SCALAR",
		"componentType":5123,
		"count":12000,
		"byteOffset":0,
		"min":[0],
		"max":[2184]
	},
	{
		"bufferView":5,
		"type":"VEC3",
		"componentType":5126,
		"count":2185,
		"byteOffset":0,
		"min":[-2.6182138919830324,
		-1.595076560974121,
		-2.586934804916382],
		"max":[2.555665969848633,
		2.815228223800659,
		2.586934804916382]
	},
	{
		"bufferView":5,
		"type":"VEC3",
		"componentType":5126,
		"count":2185,
		"byteOffset":12,
		"min":[-1.0,
		-0.053751904517412189,
		-1.0],
		"max":[1.0,
		0.014000512659549714,
		1.0]
	},
	{
		"bufferView":5,
		"type":"VEC2",
		"componentType":5126,
		"count":2185,
		"byteOffset":24,
		"min":[0.2655114531517029,
		0.0009892052039504052],
		"max":[0.4930148124694824,
		0.7776839733123779]
	},
	{
		"bufferView":6,
		"type":"SCALAR",
		"componentType":5123,
		"count":75000,
		"byteOffset":0,
		"min":[0],
		"max":[12832]
	},
	{
		"bufferView":7,
		"type":"VEC3",
		"componentType":5126,
		"count":12833,
		"byteOffset":0,
		"min":[-2.596736192703247,
		-9.780125617980957,
		-2.5654547214508058],
		"max":[2.5341830253601076,
		7.5662760734558109,
		2.5654547214508058]
	},
	{
		"bufferView":7,
		"type":"VEC3",
		"componentType":5126,
		"count":12833,
		"byteOffset":12,
		"min":[-0.9999995231628418,
		-0.9999871253967285,
		-0.9999998807907105],
		"max":[1.0,
		0.480102002620697,
		0.9999998807907105]
	},
	{
		"bufferView":7,
		"type":"VEC2",
		"componentType":5126,
		"count":12833,
		"byteOffset":24,
		"min":[0.0009892052039504052,
		0.0009892052039504052],
		"max":[0.9006615877151489,
		0.9979298114776611]
	}],
	"bufferViews":[{
		"byteLength":9000,
		"buffer":0,
		"byteOffset":0,
		"target":34963
	},
	{
		"byteLength":28288,
		"buffer":0,
		"byteOffset":9000,
		"target":34962,
		"byteStride":32
	},
	{
		"byteLength":6150,
		"buffer":1,
		"byteOffset":0,
		"target":34963
	},
	{
		"byteLength":21472,
		"buffer":1,
		"byteOffset":6152,
		"target":34962,
		"byteStride":32
	},
	{
		"byteLength":24000,
		"buffer":2,
		"byteOffset":0,
		"target":34963
	},
	{
		"byteLength":69920,
		"buffer":2,
		"byteOffset":24000,
		"target":34962,
		"byteStride":32
	},
	{
		"byteLength":150000,
		"buffer":3,
		"byteOffset":0,
		"target":34963
	},
	{
		"byteLength":410656,
		"buffer":3,
		"byteOffset":150000,
		"target":34962,
		"byteStride":32
	}],
	"buffers":[{
		"uri":"data:application/octet-stream;base64,",
		"byteLength":37288
	},
	{
		"uri":"data:application/octet-stream;base64,",
		"byteLength":27624
	},
	{
		"uri":"data:application/octet-stream;base64,",
		"byteLength":93920
	},
	{
		"uri":"data:application/octet-stream;base64,",
		"byteLength":560656
	}],
	"images":[{
		"uri":"data:image/png;base64,"
	}],
	"samplers":[{
		"magFilter":9729,
		"minFilter":9729,
		"wrapS":10497,
		"wrapT":10497
	}],
	"textures":[{
		"sampler":0,
		"source":0
	}],
	"materials":[{
		"alphaMode":"BLEND",
		"pbrMetallicRoughness":{
			"baseColorFactor":[1.0,
			1.0,
			1.0,
			0.1015625],
			"metallicFactor":0.0,
			"roughnessFactor":0.5
		},
		"emissiveFactor":[0.0,
		0.0,
		0.0],
		"name":"Mat",
		"doubleSided":true
	},
	{
		"alphaMode":"OPAQUE",
		"pbrMetallicRoughness":{
			"baseColorFactor":[0.008067042606516209,
			0.24201127819548874,
			0.0,
			1.0],
			"metallicFactor":0.0,
			"roughnessFactor":0.9099999999999999
		},
		"emissiveFactor":[0.0,
		0.0,
		0.0],
		"name":"Mat",
		"doubleSided":true
	},
	{
		"alphaMode":"OPAQUE",
		"pbrMetallicRoughness":{
			"baseColorTexture":{
				"index":0
			},
			"baseColorFactor":[1.0,
			1.0,
			1.0,
			1.0],
			"metallicFactor":0.0,
			"roughnessFactor":0.5
		},
		"emissiveFactor":[0.0,
		0.0,
		0.0],
		"name":"Mat.2",
		"doubleSided":true
	}]
}